# xmcd
#
# Track frame offsets:
#	150
#	22055
#	23262
#	38895
#	52555
#	68320
#	90707
#	108942
#	128462
#
# Disc length: 1962 seconds
#
# Revision: 0
# Processed by: cddbd v1.5.2PL0 Copyright (c) Steve Scherf et al.
# Submitted via: EasyCDDAExtractor 16.0.6.1
#
DISCID=5707a809
DTITLE=Mattoli - Balanço bom é coisa rara
DYEAR=1997
DGENRE=Samba
TTITLE0=Balanço
TTITLE1=Segura a nêga
TTITLE2=Segura a nêga
TTITLE3=Aeroporto
TTITLE4=Saudades da preta
TTITLE5=Orayeye
TTITLE6=Ela é demais
TTITLE7=Pobre de Deus
TTITLE8=Santa paciência
EXTD=
EXTT0=
EXTT1=
EXTT2=
EXTT3=
EXTT4=
EXTT5=
EXTT6=
EXTT7=
EXTT8=
PLAYORDER=
